# xmcd
#
# Track frame offsets:
#	150
#	22395
#	43103
#	61334
#	79901
#	94732
#	113987
#	126307
#	138332
#	157135
#	182814
#	195414
#	215654
#	238075
#	253864
#
# Disc length: 3705 seconds
#
# Revision: 0
# Processed by: cddbd v1.5.1PL0 Copyright (c) Steve Scherf et al.
# Submitted via: dBpowerAMP V4.0
#
DISCID=e50e770f
DTITLE=Varios - Rod Stewart and His Faces Modified
DYEAR=1900
DGENRE=Ballad
TTITLE0=Maggie May - Steve Overland
TTITLE1=Stay With Me - Chris Thompson
TTITLE2=Tonight´s The Night - Nicky Moore
TTITLE3=Rhythm Of My Heart - Steve Overland
TTITLE4=Twistin´ The  Night Away - Doogie White
TTITLE5=First Cut Is The Deepest - Chris Farlowe
TTITLE6=Itchcyoo Park - Steve Overland
TTITLE7=Cindy Incidently - Paul Dianno
TTITLE8=This Old Heart of Mine - Chris Thompson
TTITLE9=Do Ya Think I´m Sexy - Jill Saward
TTITLE10=How Come - Chip Hawkes
TTITLE11=You wear It Well - Nicky Moore
TTITLE12=Hotlegs - Paul Dianno
TTITLE13=All Or Nothing  - Doogie White
TTITLE14=Sailing - Chris Farlowe
EXTD=
EXTT0=
EXTT1=
EXTT2=
EXTT3=
EXTT4=
EXTT5=
EXTT6=
EXTT7=
EXTT8=
EXTT9=
EXTT10=
EXTT11=
EXTT12=
EXTT13=
EXTT14=
PLAYORDER=
